STARTFONT 2.1
COMMENT Exported by Fony v1.4.7
FONT 7Segment28
SIZE 37 96 96
FONTBOUNDINGBOX 30 36 0 -2
STARTPROPERTIES 6
COPYRIGHT ""
RESOLUTION_X 96
RESOLUTION_Y 96
FONT_ASCENT 35
FONT_DESCENT 2
DEFAULT_CHAR 0
ENDPROPERTIES
CHARS 256
STARTCHAR 000
ENCODING 0
SWIDTH 792 0
DWIDTH 11 0
BBX 0 0 0 0
BITMAP
ENDCHAR
STARTCHAR 001
ENCODING 1
SWIDTH 648 0
DWIDTH 9 0
BBX 8 24 1 -1
BITMAP
FF
FF
83
83
83
83
83
83
83
83
83
83
83
83
83
83
83
83
83
83
83
83
FF
FF
ENDCHAR
STARTCHAR 002
ENCODING 2
SWIDTH 936 0
DWIDTH 13 0
BBX 0 0 0 0
BITMAP
ENDCHAR
STARTCHAR 003
ENCODING 3
SWIDTH 648 0
DWIDTH 9 0
BBX 8 24 1 -1
BITMAP
FF
FF
83
83
83
83
83
83
83
83
83
83
83
83
83
83
83
83
83
83
83
83
FF
FF
ENDCHAR
STARTCHAR 004
ENCODING 4
SWIDTH 648 0
DWIDTH 9 0
BBX 8 24 1 -1
BITMAP
FF
FF
83
83
83
83
83
83
83
83
83
83
83
83
83
83
83
83
83
83
83
83
FF
FF
ENDCHAR
STARTCHAR 005
ENCODING 5
SWIDTH 648 0
DWIDTH 9 0
BBX 8 24 1 -1
BITMAP
FF
FF
83
83
83
83
83
83
83
83
83
83
83
83
83
83
83
83
83
83
83
83
FF
FF
ENDCHAR
STARTCHAR 006
ENCODING 6
SWIDTH 648 0
DWIDTH 9 0
BBX 8 24 1 -1
BITMAP
FF
FF
83
83
83
83
83
83
83
83
83
83
83
83
83
83
83
83
83
83
83
83
FF
FF
ENDCHAR
STARTCHAR 007
ENCODING 7
SWIDTH 648 0
DWIDTH 9 0
BBX 8 24 1 -1
BITMAP
FF
FF
83
83
83
83
83
83
83
83
83
83
83
83
83
83
83
83
83
83
83
83
FF
FF
ENDCHAR
STARTCHAR 008
ENCODING 8
SWIDTH 648 0
DWIDTH 9 0
BBX 8 24 1 -1
BITMAP
FF
FF
83
83
83
83
83
83
83
83
83
83
83
83
83
83
83
83
83
83
83
83
FF
FF
ENDCHAR
STARTCHAR 009
ENCODING 9
SWIDTH 0 0
DWIDTH 0 0
BBX 0 0 0 0
BITMAP
ENDCHAR
STARTCHAR 010
ENCODING 10
SWIDTH 0 0
DWIDTH 0 0
BBX 0 0 0 0
BITMAP
ENDCHAR
STARTCHAR 011
ENCODING 11
SWIDTH 648 0
DWIDTH 9 0
BBX 8 24 1 -1
BITMAP
FF
FF
83
83
83
83
83
83
83
83
83
83
83
83
83
83
83
83
83
83
83
83
FF
FF
ENDCHAR
STARTCHAR 012
ENCODING 12
SWIDTH 1512 0
DWIDTH 21 0
BBX 17 17 2 -1
BITMAP
018000
03C000
07E000
0FF000
1FF800
3FFC00
7FFE00
FFFF00
FFFF80
FBFF80
F3EF80
E3E780
C3E380
83E180
03E080
03E000
03E000
ENDCHAR
STARTCHAR 013
ENCODING 13
SWIDTH 0 0
DWIDTH 0 0
BBX 0 0 0 0
BITMAP
ENDCHAR
STARTCHAR 014
ENCODING 14
SWIDTH 648 0
DWIDTH 9 0
BBX 8 24 1 -1
BITMAP
FF
FF
83
83
83
83
83
83
83
83
83
83
83
83
83
83
83
83
83
83
83
83
FF
FF
ENDCHAR
STARTCHAR 015
ENCODING 15
SWIDTH 648 0
DWIDTH 9 0
BBX 8 24 1 -1
BITMAP
FF
FF
83
83
83
83
83
83
83
83
83
83
83
83
83
83
83
83
83
83
83
83
FF
FF
ENDCHAR
STARTCHAR 016
ENCODING 16
SWIDTH 648 0
DWIDTH 9 0
BBX 8 24 1 -1
BITMAP
FF
FF
83
83
83
83
83
83
83
83
83
83
83
83
83
83
83
83
83
83
83
83
FF
FF
ENDCHAR
STARTCHAR 017
ENCODING 17
SWIDTH 648 0
DWIDTH 9 0
BBX 8 24 1 -1
BITMAP
FF
FF
83
83
83
83
83
83
83
83
83
83
83
83
83
83
83
83
83
83
83
83
FF
FF
ENDCHAR
STARTCHAR 018
ENCODING 18
SWIDTH 648 0
DWIDTH 9 0
BBX 8 24 1 -1
BITMAP
FF
FF
83
83
83
83
83
83
83
83
83
83
83
83
83
83
83
83
83
83
83
83
FF
FF
ENDCHAR
STARTCHAR 019
ENCODING 19
SWIDTH 648 0
DWIDTH 9 0
BBX 8 24 1 -1
BITMAP
FF
FF
83
83
83
83
83
83
83
83
83
83
83
83
83
83
83
83
83
83
83
83
FF
FF
ENDCHAR
STARTCHAR 020
ENCODING 20
SWIDTH 648 0
DWIDTH 9 0
BBX 8 24 1 -1
BITMAP
FF
FF
83
83
83
83
83
83
83
83
83
83
83
83
83
83
83
83
83
83
83
83
FF
FF
ENDCHAR
STARTCHAR 021
ENCODING 21
SWIDTH 648 0
DWIDTH 9 0
BBX 8 24 1 -1
BITMAP
FF
FF
83
83
83
83
83
83
83
83
83
83
83
83
83
83
83
83
83
83
83
83
FF
FF
ENDCHAR
STARTCHAR 022
ENCODING 22
SWIDTH 648 0
DWIDTH 9 0
BBX 8 24 1 -1
BITMAP
FF
FF
83
83
83
83
83
83
83
83
83
83
83
83
83
83
83
83
83
83
83
83
FF
FF
ENDCHAR
STARTCHAR 023
ENCODING 23
SWIDTH 648 0
DWIDTH 9 0
BBX 8 24 1 -1
BITMAP
FF
FF
83
83
83
83
83
83
83
83
83
83
83
83
83
83
83
83
83
83
83
83
FF
FF
ENDCHAR
STARTCHAR 024
ENCODING 24
SWIDTH 648 0
DWIDTH 9 0
BBX 8 24 1 -1
BITMAP
FF
FF
83
83
83
83
83
83
83
83
83
83
83
83
83
83
83
83
83
83
83
83
FF
FF
ENDCHAR
STARTCHAR 025
ENCODING 25
SWIDTH 648 0
DWIDTH 9 0
BBX 8 24 1 -1
BITMAP
FF
FF
83
83
83
83
83
83
83
83
83
83
83
83
83
83
83
83
83
83
83
83
FF
FF
ENDCHAR
STARTCHAR 026
ENCODING 26
SWIDTH 648 0
DWIDTH 9 0
BBX 8 24 1 -1
BITMAP
FF
FF
83
83
83
83
83
83
83
83
83
83
83
83
83
83
83
83
83
83
83
83
FF
FF
ENDCHAR
STARTCHAR 027
ENCODING 27
SWIDTH 648 0
DWIDTH 9 0
BBX 8 24 1 -1
BITMAP
FF
FF
83
83
83
83
83
83
83
83
83
83
83
83
83
83
83
83
83
83
83
83
FF
FF
ENDCHAR
STARTCHAR 028
ENCODING 28
SWIDTH 0 0
DWIDTH 0 0
BBX 0 0 0 0
BITMAP
ENDCHAR
STARTCHAR 029
ENCODING 29
SWIDTH 0 0
DWIDTH 0 0
BBX 0 0 0 0
BITMAP
ENDCHAR
STARTCHAR 030
ENCODING 30
SWIDTH 0 0
DWIDTH 0 0
BBX 0 0 0 0
BITMAP
ENDCHAR
STARTCHAR 031
ENCODING 31
SWIDTH 0 0
DWIDTH 0 0
BBX 0 0 0 0
BITMAP
ENDCHAR
STARTCHAR 032
ENCODING 32
SWIDTH 504 0
DWIDTH 7 0
BBX 0 0 0 0
BITMAP
ENDCHAR
STARTCHAR 033
ENCODING 33
SWIDTH 2160 0
DWIDTH 30 0
BBX 0 0 0 0
BITMAP
ENDCHAR
STARTCHAR 034
ENCODING 34
SWIDTH 720 0
DWIDTH 10 0
BBX 7 7 1 11
BITMAP
C6
C6
C6
C6
C6
C6
C6
ENDCHAR
STARTCHAR 035
ENCODING 35
SWIDTH 1080 0
DWIDTH 15 0
BBX 13 19 1 -1
BITMAP
0630
0630
0C60
0C60
0C60
7FF8
7FF8
18C0
18C0
18C0
18C0
18C0
FFF0
FFF0
3180
3180
3180
6300
6300
ENDCHAR
STARTCHAR 036
ENCODING 36
SWIDTH 1080 0
DWIDTH 15 0
BBX 13 22 1 -2
BITMAP
0200
0200
0FC0
3FE0
7270
C238
C218
C200
E200
7200
3F00
0FE0
02F0
0238
0218
C218
C218
6238
7270
3FE0
0F80
0200
ENDCHAR
STARTCHAR 037
ENCODING 37
SWIDTH 1728 0
DWIDTH 24 0
BBX 20 19 2 -1
BITMAP
3E0300
7F0600
E38600
C18C00
C18C00
C19800
C19800
E3B000
7F3000
3E67C0
00CFE0
00DC70
019830
019830
031830
031830
061C70
060FE0
0C07C0
ENDCHAR
STARTCHAR 038
ENCODING 38
SWIDTH 1296 0
DWIDTH 18 0
BBX 14 19 2 -1
BITMAP
0F80
1FC0
38E0
3060
3060
3860
19C0
1F80
1E00
3F00
730C
E38C
C1DC
C0F8
C078
E070
70F8
3FDC
1F08
ENDCHAR
STARTCHAR 039
ENCODING 39
SWIDTH 360 0
DWIDTH 5 0
BBX 2 7 1 11
BITMAP
C0
C0
C0
C0
C0
C0
C0
ENDCHAR
STARTCHAR 040
ENCODING 40
SWIDTH 648 0
DWIDTH 9 0
BBX 6 20 2 -2
BITMAP
0C
18
18
30
30
60
60
60
C0
C0
C0
C0
C0
C0
C0
C0
60
60
60
30
ENDCHAR
STARTCHAR 041
ENCODING 41
SWIDTH 648 0
DWIDTH 9 0
BBX 6 20 1 -2
BITMAP
C0
60
60
30
30
18
18
18
0C
0C
0C
0C
0C
0C
0C
0C
18
18
18
30
ENDCHAR
STARTCHAR 042
ENCODING 42
SWIDTH 792 0
DWIDTH 11 0
BBX 8 8 1 10
BITMAP
18
18
DB
FF
18
3C
66
24
ENDCHAR
STARTCHAR 043
ENCODING 43
SWIDTH 1152 0
DWIDTH 16 0
BBX 12 12 2 3
BITMAP
0600
0600
0600
0600
0600
FFF0
FFF0
0600
0600
0600
0600
0600
ENDCHAR
STARTCHAR 044
ENCODING 44
SWIDTH 576 0
DWIDTH 8 0
BBX 4 3 2 -1
BITMAP
F0
F0
F0
ENDCHAR
STARTCHAR 045
ENCODING 45
SWIDTH 2160 0
DWIDTH 30 0
BBX 20 3 5 15
BITMAP
7FFFE0
FFFFF0
7FFFE0
ENDCHAR
STARTCHAR 046
ENCODING 46
SWIDTH 0 0
DWIDTH 0 0
BBX 0 0 0 0
BITMAP
ENDCHAR
STARTCHAR 047
ENCODING 47
SWIDTH 576 0
DWIDTH 8 0
BBX 8 19 0 -1
BITMAP
03
07
06
06
06
0C
0C
0C
18
18
18
30
30
30
60
60
60
E0
C0
ENDCHAR
STARTCHAR 048
ENCODING 48
SWIDTH 2160 0
DWIDTH 30 0
BBX 22 37 4 -2
BITMAP
3FFFF0
3FFFF8
DFFFF4
E0000C
E0001C
E0001C
E0001C
E0001C
E0001C
E0001C
E0001C
E0001C
E0001C
E0001C
E0001C
E0001C
C0000C
800004
000000
800004
C0000C
E0001C
E0001C
E0001C
E0001C
E0001C
E0001C
E0001C
E0001C
E0001C
E0001C
E0001C
E0001C
E0000C
DFFFF4
3FFFF8
3FFFF0
ENDCHAR
STARTCHAR 049
ENCODING 49
SWIDTH 2160 0
DWIDTH 30 0
BBX 3 33 23 0
BITMAP
20
60
E0
E0
E0
E0
E0
E0
E0
E0
E0
E0
E0
E0
60
20
00
20
60
E0
E0
E0
E0
E0
E0
E0
E0
E0
E0
E0
E0
60
20
ENDCHAR
STARTCHAR 050
ENCODING 50
SWIDTH 2160 0
DWIDTH 30 0
BBX 22 37 4 -2
BITMAP
3FFFF0
3FFFF8
1FFFF4
00000C
00001C
00001C
00001C
00001C
00001C
00001C
00001C
00001C
00001C
00001C
00001C
00001C
00000C
3FFFF4
7FFFF8
BFFFF0
C00000
E00000
E00000
E00000
E00000
E00000
E00000
E00000
E00000
E00000
E00000
E00000
E00000
E00000
DFFFF0
3FFFF8
3FFFF0
ENDCHAR
STARTCHAR 051
ENCODING 51
SWIDTH 2160 0
DWIDTH 30 0
BBX 21 37 5 -2
BITMAP
7FFFE0
7FFFF0
3FFFE8
000018
000038
000038
000038
000038
000038
000038
000038
000038
000038
000038
000038
000038
000018
7FFFE8
FFFFF0
7FFFE8
000018
000038
000038
000038
000038
000038
000038
000038
000038
000038
000038
000038
000038
000018
3FFFE8
7FFFF0
7FFFE0
ENDCHAR
STARTCHAR 052
ENCODING 52
SWIDTH 2160 0
DWIDTH 30 0
BBX 22 33 4 0
BITMAP
C00004
E0000C
E0001C
E0001C
E0001C
E0001C
E0001C
E0001C
E0001C
E0001C
E0001C
E0001C
E0001C
E0001C
C0000C
BFFFF4
7FFFF8
3FFFF4
00000C
00001C
00001C
00001C
00001C
00001C
00001C
00001C
00001C
00001C
00001C
00001C
00001C
00000C
000004
ENDCHAR
STARTCHAR 053
ENCODING 53
SWIDTH 2160 0
DWIDTH 30 0
BBX 22 37 4 -2
BITMAP
3FFFF0
3FFFF8
DFFFF0
E00000
E00000
E00000
E00000
E00000
E00000
E00000
E00000
E00000
E00000
E00000
E00000
E00000
C00000
BFFFF0
7FFFF8
3FFFF4
00000C
00001C
00001C
00001C
00001C
00001C
00001C
00001C
00001C
00001C
00001C
00001C
00001C
00000C
1FFFF4
3FFFF8
3FFFF0
ENDCHAR
STARTCHAR 054
ENCODING 54
SWIDTH 2160 0
DWIDTH 30 0
BBX 22 37 4 -2
BITMAP
3FFFF0
3FFFF8
DFFFF0
E00000
E00000
E00000
E00000
E00000
E00000
E00000
E00000
E00000
E00000
E00000
E00000
E00000
C00000
BFFFF0
7FFFF8
BFFFF4
C0000C
E0001C
E0001C
E0001C
E0001C
E0001C
E0001C
E0001C
E0001C
E0001C
E0001C
E0001C
E0001C
E0000C
DFFFF4
3FFFF8
3FFFF0
ENDCHAR
STARTCHAR 055
ENCODING 55
SWIDTH 2160 0
DWIDTH 30 0
BBX 22 35 4 0
BITMAP
3FFFF0
3FFFF8
DFFFF4
E0000C
E0001C
E0001C
E0001C
E0001C
E0001C
E0001C
E0001C
E0001C
E0001C
E0001C
E0001C
E0001C
C0000C
800004
000000
000004
00000C
00001C
00001C
00001C
00001C
00001C
00001C
00001C
00001C
00001C
00001C
00001C
00001C
00000C
000004
ENDCHAR
STARTCHAR 056
ENCODING 56
SWIDTH 2160 0
DWIDTH 30 0
BBX 22 37 4 -2
BITMAP
3FFFF0
3FFFF8
DFFFF4
E0000C
E0001C
E0001C
E0001C
E0001C
E0001C
E0001C
E0001C
E0001C
E0001C
E0001C
E0001C
E0001C
C0000C
BFFFF4
7FFFF8
BFFFF4
C0000C
E0001C
E0001C
E0001C
E0001C
E0001C
E0001C
E0001C
E0001C
E0001C
E0001C
E0001C
E0001C
E0000C
DFFFF4
3FFFF8
3FFFF0
ENDCHAR
STARTCHAR 057
ENCODING 57
SWIDTH 2160 0
DWIDTH 30 0
BBX 22 37 4 -2
BITMAP
3FFFF0
3FFFF8
DFFFF4
E0000C
E0001C
E0001C
E0001C
E0001C
E0001C
E0001C
E0001C
E0001C
E0001C
E0001C
E0001C
E0001C
C0000C
BFFFF4
7FFFF8
3FFFF4
00000C
00001C
00001C
00001C
00001C
00001C
00001C
00001C
00001C
00001C
00001C
00001C
00001C
00000C
1FFFF4
3FFFF8
3FFFF0
ENDCHAR
STARTCHAR 058
ENCODING 58
SWIDTH 504 0
DWIDTH 7 0
BBX 5 20 1 6
BITMAP
70
78
F8
78
30
00
00
00
00
00
00
00
00
00
00
30
78
F8
78
70
ENDCHAR
STARTCHAR 059
ENCODING 59
SWIDTH 576 0
DWIDTH 8 0
BBX 2 15 3 -2
BITMAP
C0
C0
C0
00
00
00
00
00
00
00
00
C0
C0
C0
40
ENDCHAR
STARTCHAR 060
ENCODING 60
SWIDTH 1152 0
DWIDTH 16 0
BBX 12 13 2 2
BITMAP
0010
0070
03E0
0F80
3E00
F800
C000
F800
3E00
0F80
03E0
0070
0010
ENDCHAR
STARTCHAR 061
ENCODING 61
SWIDTH 1152 0
DWIDTH 16 0
BBX 12 8 2 5
BITMAP
FFF0
FFF0
0000
0000
0000
0000
FFF0
FFF0
ENDCHAR
STARTCHAR 062
ENCODING 62
SWIDTH 1152 0
DWIDTH 16 0
BBX 12 13 2 2
BITMAP
8000
E000
7C00
1F00
07C0
01F0
0030
01F0
07C0
1F00
7C00
E000
8000
ENDCHAR
STARTCHAR 063
ENCODING 63
SWIDTH 1080 0
DWIDTH 15 0
BBX 11 19 2 -1
BITMAP
1F00
3FC0
70C0
6060
C060
C060
0060
00C0
0180
0700
0600
0C00
0C00
0C00
0000
0000
0C00
0C00
0C00
ENDCHAR
STARTCHAR 064
ENCODING 64
SWIDTH 1944 0
DWIDTH 27 0
BBX 23 20 2 -2
BITMAP
007F00
03FFC0
0780F0
0E0038
1C0018
387D8C
70FF8C
61C786
638386
C30306
C70306
C60306
C60306
C6060E
C6060C
C60E1C
631E38
63F7F0
71E3C0
380000
ENDCHAR
STARTCHAR 065
ENCODING 65
SWIDTH 2160 0
DWIDTH 30 0
BBX 23 35 4 0
BITMAP
3FFFF0
3FFFF8
DFFFF4
E0000E
E0001E
E0001E
E0001E
E0001E
E0001E
E0001E
E0001E
E0001E
E0001E
E0001E
E0001E
E0001E
C0000E
BFFFF6
7FFFF8
BFFFF6
C0000E
E0001E
E0001E
E0001E
E0001E
E0001E
E0001E
E0001E
E0001E
E0001E
E0001E
E0001E
E0001E
E0000E
C00004
ENDCHAR
STARTCHAR 066
ENCODING 66
SWIDTH 2160 0
DWIDTH 30 0
BBX 23 35 4 -2
BITMAP
C00000
E00000
E00000
E00000
E00000
E00000
E00000
E00000
E00000
E00000
E00000
E00000
E00000
E00000
C00000
BFFFF0
7FFFF8
BFFFF6
C0000E
E0001E
E0001E
E0001E
E0001E
E0001E
E0001E
E0001E
E0001E
E0001E
E0001E
E0001E
E0001E
E0000E
DFFFF4
3FFFF8
3FFFF0
ENDCHAR
STARTCHAR 067
ENCODING 67
SWIDTH 2160 0
DWIDTH 30 0
BBX 21 20 4 -2
BITMAP
3FFFF0
7FFFF8
BFFFF0
C00000
E00000
E00000
E00000
E00000
E00000
E00000
E00000
E00000
E00000
E00000
E00000
E00000
E00000
DFFFF0
3FFFF8
3FFFF0
ENDCHAR
STARTCHAR 068
ENCODING 68
SWIDTH 2160 0
DWIDTH 30 0
BBX 23 35 4 -2
BITMAP
000004
00000E
00001E
00001E
00001E
00001E
00001E
00001E
00001E
00001E
00001E
00001E
00001E
00001E
00000E
3FFFF6
7FFFF8
BFFFF6
C0000E
E0001E
E0001E
E0001E
E0001E
E0001E
E0001E
E0001E
E0001E
E0001E
E0001E
E0001E
E0001E
E0000E
DFFFF4
3FFFF8
3FFFF0
ENDCHAR
STARTCHAR 069
ENCODING 69
SWIDTH 2160 0
DWIDTH 30 0
BBX 21 37 4 -2
BITMAP
3FFFF0
3FFFF8
DFFFF0
E00000
E00000
E00000
E00000
E00000
E00000
E00000
E00000
E00000
E00000
E00000
E00000
E00000
C00000
BFFFF0
7FFFF8
BFFFF0
C00000
E00000
E00000
E00000
E00000
E00000
E00000
E00000
E00000
E00000
E00000
E00000
E00000
E00000
DFFFF0
3FFFF8
3FFFF0
ENDCHAR
STARTCHAR 070
ENCODING 70
SWIDTH 2160 0
DWIDTH 30 0
BBX 21 35 4 0
BITMAP
3FFFF0
3FFFF8
DFFFF0
E00000
E00000
E00000
E00000
E00000
E00000
E00000
E00000
E00000
E00000
E00000
E00000
E00000
C00000
BFFFF0
7FFFF8
BFFFF0
C00000
E00000
E00000
E00000
E00000
E00000
E00000
E00000
E00000
E00000
E00000
E00000
E00000
E00000
C00000
ENDCHAR
STARTCHAR 071
ENCODING 71
SWIDTH 2160 0
DWIDTH 30 0
BBX 23 37 4 -2
BITMAP
3FFFF0
3FFFF8
DFFFF0
E00000
E00000
E00000
E00000
E00000
E00000
E00000
E00000
E00000
E00000
E00000
E00000
E00000
C00000
800000
000000
800006
C0000E
E0001E
E0001E
E0001E
E0001E
E0001E
E0001E
E0001E
E0001E
E0001E
E0001E
E0001E
E0001E
E0000E
DFFFF4
3FFFF8
3FFFF0
ENDCHAR
STARTCHAR 072
ENCODING 72
SWIDTH 2160 0
DWIDTH 30 0
BBX 23 33 4 0
BITMAP
C00000
E00000
E00000
E00000
E00000
E00000
E00000
E00000
E00000
E00000
E00000
E00000
E00000
E00000
C00000
BFFFF0
7FFFF8
BFFFF6
C0000E
E0001E
E0001E
E0001E
E0001E
E0001E
E0001E
E0001E
E0001E
E0001E
E0001E
E0001E
E0001E
E0000E
C00004
ENDCHAR
STARTCHAR 073
ENCODING 73
SWIDTH 2160 0
DWIDTH 30 0
BBX 4 16 23 0
BITMAP
30
70
F0
F0
F0
F0
F0
F0
F0
F0
F0
F0
F0
F0
70
20
ENDCHAR
STARTCHAR 074
ENCODING 74
SWIDTH 2160 0
DWIDTH 30 0
BBX 23 35 4 -2
BITMAP
000004
00000E
00001E
00001E
00001E
00001E
00001E
00001E
00001E
00001E
00001E
00001E
00001E
00001E
00000E
000006
000000
800006
C0000E
E0001E
E0001E
E0001E
E0001E
E0001E
E0001E
E0001E
E0001E
E0001E
E0001E
E0001E
E0001E
E0000E
DFFFF4
3FFFF8
3FFFF0
ENDCHAR
STARTCHAR 075
ENCODING 75
SWIDTH 2160 0
DWIDTH 30 0
BBX 23 35 4 0
BITMAP
3FFFF0
3FFFF8
DFFFF0
E00000
E00000
E00000
E00000
E00000
E00000
E00000
E00000
E00000
E00000
E00000
E00000
E00000
C00000
BFFFF0
7FFFF8
BFFFF6
C0000E
E0001E
E0001E
E0001E
E0001E
E0001E
E0001E
E0001E
E0001E
E0001E
E0001E
E0001E
E0001E
E0000E
C00004
ENDCHAR
STARTCHAR 076
ENCODING 76
SWIDTH 2160 0
DWIDTH 30 0
BBX 21 35 4 -2
BITMAP
C00000
E00000
E00000
E00000
E00000
E00000
E00000
E00000
E00000
E00000
E00000
E00000
E00000
E00000
C00000
800000
000000
800000
C00000
E00000
E00000
E00000
E00000
E00000
E00000
E00000
E00000
E00000
E00000
E00000
E00000
E00000
DFFFF0
3FFFF8
3FFFF0
ENDCHAR
STARTCHAR 077
ENCODING 77
SWIDTH 2160 0
DWIDTH 30 0
BBX 23 35 4 0
BITMAP
3FFFF0
3FFFF8
DFFFF4
E0000E
E0001E
E0001E
E0001E
E0001E
E0001E
E0001E
E0001E
E0001E
E0001E
E0001E
E0001E
E0001E
C0000E
800006
000000
800006
C0000E
E0001E
E0001E
E0001E
E0001E
E0001E
E0001E
E0001E
E0001E
E0001E
E0001E
E0001E
E0001E
E0000E
C00004
ENDCHAR
STARTCHAR 078
ENCODING 78
SWIDTH 2160 0
DWIDTH 30 0
BBX 23 18 4 0
BITMAP
3FFFF0
7FFFF8
BFFFF6
C0000E
E0001E
E0001E
E0001E
E0001E
E0001E
E0001E
E0001E
E0001E
E0001E
E0001E
E0001E
E0001E
E0000E
C00004
ENDCHAR
STARTCHAR 079
ENCODING 79
SWIDTH 2160 0
DWIDTH 30 0
BBX 23 20 4 -2
BITMAP
3FFFF0
7FFFF8
BFFFF6
C0000E
E0001E
E0001E
E0001E
E0001E
E0001E
E0001E
E0001E
E0001E
E0001E
E0001E
E0001E
E0001E
E0000E
DFFFF4
3FFFF8
3FFFF0
ENDCHAR
STARTCHAR 080
ENCODING 80
SWIDTH 2160 0
DWIDTH 30 0
BBX 23 35 4 0
BITMAP
3FFFF0
3FFFF8
DFFFF4
E0000E
E0001E
E0001E
E0001E
E0001E
E0001E
E0001E
E0001E
E0001E
E0001E
E0001E
E0001E
E0001E
C0000E
BFFFF6
7FFFF8
BFFFF0
C00000
E00000
E00000
E00000
E00000
E00000
E00000
E00000
E00000
E00000
E00000
E00000
E00000
E00000
C00000
ENDCHAR
STARTCHAR 081
ENCODING 81
SWIDTH 2160 0
DWIDTH 30 0
BBX 23 35 4 0
BITMAP
3FFFF0
3FFFF8
DFFFF4
E0000E
E0001E
E0001E
E0001E
E0001E
E0001E
E0001E
E0001E
E0001E
E0001E
E0001E
E0001E
E0001E
C0000E
BFFFF6
7FFFF8
3FFFF6
00000E
00001E
00001E
00001E
00001E
00001E
00001E
00001E
00001E
00001E
00001E
00001E
00001E
00000E
000004
ENDCHAR
STARTCHAR 082
ENCODING 82
SWIDTH 2160 0
DWIDTH 30 0
BBX 21 18 4 0
BITMAP
3FFFF0
7FFFF8
BFFFF0
C00000
E00000
E00000
E00000
E00000
E00000
E00000
E00000
E00000
E00000
E00000
E00000
E00000
E00000
C00000
ENDCHAR
STARTCHAR 083
ENCODING 83
SWIDTH 2160 0
DWIDTH 30 0
BBX 22 37 4 -2
BITMAP
3FFFF0
7FFFF8
BFFFF0
C00000
E00000
E00000
E00000
E00000
E00000
E00000
E00000
E00000
E00000
E00000
E00000
E00000
C00000
BFFFF0
7FFFF8
3FFFF4
00000C
00001C
00001C
00001C
00001C
00001C
00001C
00001C
00001C
00001C
00001C
00001C
00001C
00000C
1FFFF4
3FFFF8
1FFFF0
ENDCHAR
STARTCHAR 084
ENCODING 84
SWIDTH 2160 0
DWIDTH 30 0
BBX 21 35 4 -2
BITMAP
C00000
E00000
E00000
E00000
E00000
E00000
E00000
E00000
E00000
E00000
E00000
E00000
E00000
E00000
C00000
BFFFF0
7FFFF8
BFFFF0
C00000
E00000
E00000
E00000
E00000
E00000
E00000
E00000
E00000
E00000
E00000
E00000
E00000
E00000
DFFFF0
3FFFF8
3FFFF0
ENDCHAR
STARTCHAR 085
ENCODING 85
SWIDTH 2160 0
DWIDTH 30 0
BBX 23 18 4 -2
BITMAP
800006
C0000E
E0001E
E0001E
E0001E
E0001E
E0001E
E0001E
E0001E
E0001E
E0001E
E0001E
E0001E
E0001E
E0000E
DFFFF4
3FFFF8
3FFFF0
ENDCHAR
STARTCHAR 086
ENCODING 86
SWIDTH 2160 0
DWIDTH 30 0
BBX 23 35 4 -2
BITMAP
C00004
E0000E
E0001E
E0001E
E0001E
E0001E
E0001E
E0001E
E0001E
E0001E
E0001E
E0001E
E0001E
E0001E
C0000E
800006
000000
800006
C0000E
E0001E
E0001E
E0001E
E0001E
E0001E
E0001E
E0001E
E0001E
E0001E
E0001E
E0001E
E0001E
E0000E
DFFFF4
3FFFF8
3FFFF0
ENDCHAR
STARTCHAR 087
ENCODING 87
SWIDTH 2160 0
DWIDTH 30 0
BBX 23 35 4 -2
BITMAP
C00004
E0000E
E0001E
E0001E
E0001E
E0001E
E0001E
E0001E
E0001E
E0001E
E0001E
E0001E
E0001E
E0001E
C0000E
BFFFF6
7FFFF8
BFFFF6
C0000E
E0001E
E0001E
E0001E
E0001E
E0001E
E0001E
E0001E
E0001E
E0001E
E0001E
E0001E
E0001E
E0000E
DFFFF4
3FFFF8
3FFFF0
ENDCHAR
STARTCHAR 088
ENCODING 88
SWIDTH 2160 0
DWIDTH 30 0
BBX 23 33 4 0
BITMAP
C00004
E0000E
E0001E
E0001E
E0001E
E0001E
E0001E
E0001E
E0001E
E0001E
E0001E
E0001E
E0001E
E0001E
C0000E
BFFFF6
7FFFF8
BFFFF6
C0000E
E0001E
E0001E
E0001E
E0001E
E0001E
E0001E
E0001E
E0001E
E0001E
E0001E
E0001E
E0001E
E0000E
C00004
ENDCHAR
STARTCHAR 089
ENCODING 89
SWIDTH 2160 0
DWIDTH 30 0
BBX 23 35 4 -2
BITMAP
C00004
E0000E
E0001E
E0001E
E0001E
E0001E
E0001E
E0001E
E0001E
E0001E
E0001E
E0001E
E0001E
E0001E
C0000E
BFFFF6
7FFFF8
3FFFF6
00000E
00001E
00001E
00001E
00001E
00001E
00001E
00001E
00001E
00001E
00001E
00001E
00001E
00000E
1FFFF4
3FFFF8
3FFFF0
ENDCHAR
STARTCHAR 090
ENCODING 90
SWIDTH 2160 0
DWIDTH 30 0
BBX 23 37 4 -2
BITMAP
3FFFF0
3FFFF8
1FFFF4
00000E
00001E
00001E
00001E
00001E
00001E
00001E
00001E
00001E
00001E
00001E
00001E
00001E
00000E
000006
000000
800000
C00000
E00000
E00000
E00000
E00000
E00000
E00000
E00000
E00000
E00000
E00000
E00000
E00000
E00000
DFFFF0
3FFFF8
3FFFF0
ENDCHAR
STARTCHAR 091
ENCODING 91
SWIDTH 576 0
DWIDTH 8 0
BBX 5 20 2 -2
BITMAP
F8
F8
C0
C0
C0
C0
C0
C0
C0
C0
C0
C0
C0
C0
C0
C0
C0
C0
C0
C0
ENDCHAR
STARTCHAR 092
ENCODING 92
SWIDTH 576 0
DWIDTH 8 0
BBX 8 19 0 -1
BITMAP
C0
E0
60
60
60
30
30
30
18
18
18
0C
0C
0C
06
06
06
07
03
ENDCHAR
STARTCHAR 093
ENCODING 93
SWIDTH 576 0
DWIDTH 8 0
BBX 5 20 1 -2
BITMAP
F8
F8
18
18
18
18
18
18
18
18
18
18
18
18
18
18
18
18
18
18
ENDCHAR
STARTCHAR 094
ENCODING 94
SWIDTH 936 0
DWIDTH 13 0
BBX 11 8 1 10
BITMAP
0E00
0E00
1B00
1B00
3180
71C0
60C0
C060
ENDCHAR
STARTCHAR 095
ENCODING 95
SWIDTH 2160 0
DWIDTH 30 0
BBX 19 3 6 -2
BITMAP
7FFFC0
FFFFE0
FFFFC0
ENDCHAR
STARTCHAR 096
ENCODING 96
SWIDTH 648 0
DWIDTH 9 0
BBX 5 4 1 15
BITMAP
E0
70
30
18
ENDCHAR
STARTCHAR 097
ENCODING 97
SWIDTH 2160 0
DWIDTH 30 0
BBX 23 35 4 0
BITMAP
3FFFF0
3FFFF8
DFFFF4
E0000E
E0001E
E0001E
E0001E
E0001E
E0001E
E0001E
E0001E
E0001E
E0001E
E0001E
E0001E
E0001E
C0000E
BFFFF6
7FFFF8
BFFFF6
C0000E
E0001E
E0001E
E0001E
E0001E
E0001E
E0001E
E0001E
E0001E
E0001E
E0001E
E0001E
E0001E
E0000E
C00004
ENDCHAR
STARTCHAR 098
ENCODING 98
SWIDTH 2160 0
DWIDTH 30 0
BBX 23 35 4 -2
BITMAP
C00000
E00000
E00000
E00000
E00000
E00000
E00000
E00000
E00000
E00000
E00000
E00000
E00000
E00000
C00000
BFFFF0
7FFFF8
BFFFF6
C0000E
E0001E
E0001E
E0001E
E0001E
E0001E
E0001E
E0001E
E0001E
E0001E
E0001E
E0001E
E0001E
E0000E
DFFFF4
3FFFF8
3FFFF0
ENDCHAR
STARTCHAR 099
ENCODING 99
SWIDTH 2160 0
DWIDTH 30 0
BBX 21 20 4 -2
BITMAP
3FFFF0
7FFFF8
BFFFF0
C00000
E00000
E00000
E00000
E00000
E00000
E00000
E00000
E00000
E00000
E00000
E00000
E00000
E00000
DFFFF0
3FFFF8
3FFFF0
ENDCHAR
STARTCHAR 100
ENCODING 100
SWIDTH 2160 0
DWIDTH 30 0
BBX 23 35 4 -2
BITMAP
000004
00000E
00001E
00001E
00001E
00001E
00001E
00001E
00001E
00001E
00001E
00001E
00001E
00001E
00000E
3FFFF6
7FFFF8
BFFFF6
C0000E
E0001E
E0001E
E0001E
E0001E
E0001E
E0001E
E0001E
E0001E
E0001E
E0001E
E0001E
E0001E
E0000E
DFFFF4
3FFFF8
3FFFF0
ENDCHAR
STARTCHAR 101
ENCODING 101
SWIDTH 2160 0
DWIDTH 30 0
BBX 21 37 4 -2
BITMAP
3FFFF0
3FFFF8
DFFFF0
E00000
E00000
E00000
E00000
E00000
E00000
E00000
E00000
E00000
E00000
E00000
E00000
E00000
C00000
BFFFF0
7FFFF8
BFFFF0
C00000
E00000
E00000
E00000
E00000
E00000
E00000
E00000
E00000
E00000
E00000
E00000
E00000
E00000
DFFFF0
3FFFF8
3FFFF0
ENDCHAR
STARTCHAR 102
ENCODING 102
SWIDTH 2160 0
DWIDTH 30 0
BBX 21 35 4 0
BITMAP
3FFFF0
3FFFF8
DFFFF0
E00000
E00000
E00000
E00000
E00000
E00000
E00000
E00000
E00000
E00000
E00000
E00000
E00000
C00000
BFFFF0
7FFFF8
BFFFF0
C00000
E00000
E00000
E00000
E00000
E00000
E00000
E00000
E00000
E00000
E00000
E00000
E00000
E00000
C00000
ENDCHAR
STARTCHAR 103
ENCODING 103
SWIDTH 2160 0
DWIDTH 30 0
BBX 23 37 4 -2
BITMAP
3FFFF0
3FFFF8
DFFFF0
E00000
E00000
E00000
E00000
E00000
E00000
E00000
E00000
E00000
E00000
E00000
E00000
E00000
C00000
800000
000000
800006
C0000E
E0001E
E0001E
E0001E
E0001E
E0001E
E0001E
E0001E
E0001E
E0001E
E0001E
E0001E
E0001E
E0000E
DFFFF4
3FFFF8
3FFFF0
ENDCHAR
STARTCHAR 104
ENCODING 104
SWIDTH 2160 0
DWIDTH 30 0
BBX 23 33 4 0
BITMAP
C00000
E00000
E00000
E00000
E00000
E00000
E00000
E00000
E00000
E00000
E00000
E00000
E00000
E00000
C00000
BFFFF0
7FFFF8
BFFFF6
C0000E
E0001E
E0001E
E0001E
E0001E
E0001E
E0001E
E0001E
E0001E
E0001E
E0001E
E0001E
E0001E
E0000E
C00004
ENDCHAR
STARTCHAR 105
ENCODING 105
SWIDTH 2160 0
DWIDTH 30 0
BBX 4 16 23 0
BITMAP
30
70
F0
F0
F0
F0
F0
F0
F0
F0
F0
F0
F0
F0
70
20
ENDCHAR
STARTCHAR 106
ENCODING 106
SWIDTH 2160 0
DWIDTH 30 0
BBX 23 35 4 -2
BITMAP
000004
00000E
00001E
00001E
00001E
00001E
00001E
00001E
00001E
00001E
00001E
00001E
00001E
00001E
00000E
000006
000000
800006
C0000E
E0001E
E0001E
E0001E
E0001E
E0001E
E0001E
E0001E
E0001E
E0001E
E0001E
E0001E
E0001E
E0000E
DFFFF4
3FFFF8
3FFFF0
ENDCHAR
STARTCHAR 107
ENCODING 107
SWIDTH 2160 0
DWIDTH 30 0
BBX 23 35 4 0
BITMAP
3FFFF0
3FFFF8
DFFFF0
E00000
E00000
E00000
E00000
E00000
E00000
E00000
E00000
E00000
E00000
E00000
E00000
E00000
C00000
BFFFF0
7FFFF8
BFFFF6
C0000E
E0001E
E0001E
E0001E
E0001E
E0001E
E0001E
E0001E
E0001E
E0001E
E0001E
E0001E
E0001E
E0000E
C00004
ENDCHAR
STARTCHAR 108
ENCODING 108
SWIDTH 2160 0
DWIDTH 30 0
BBX 21 35 4 -2
BITMAP
C00000
E00000
E00000
E00000
E00000
E00000
E00000
E00000
E00000
E00000
E00000
E00000
E00000
E00000
C00000
800000
000000
800000
C00000
E00000
E00000
E00000
E00000
E00000
E00000
E00000
E00000
E00000
E00000
E00000
E00000
E00000
DFFFF0
3FFFF8
3FFFF0
ENDCHAR
STARTCHAR 109
ENCODING 109
SWIDTH 2160 0
DWIDTH 30 0
BBX 23 35 4 0
BITMAP
3FFFF0
3FFFF8
DFFFF4
E0000E
E0001E
E0001E
E0001E
E0001E
E0001E
E0001E
E0001E
E0001E
E0001E
E0001E
E0001E
E0001E
C0000E
800006
000000
800006
C0000E
E0001E
E0001E
E0001E
E0001E
E0001E
E0001E
E0001E
E0001E
E0001E
E0001E
E0001E
E0001E
E0000E
C00004
ENDCHAR
STARTCHAR 110
ENCODING 110
SWIDTH 2160 0
DWIDTH 30 0
BBX 23 18 4 0
BITMAP
3FFFF0
7FFFF8
BFFFF6
C0000E
E0001E
E0001E
E0001E
E0001E
E0001E
E0001E
E0001E
E0001E
E0001E
E0001E
E0001E
E0001E
E0000E
C00004
ENDCHAR
STARTCHAR 111
ENCODING 111
SWIDTH 2160 0
DWIDTH 30 0
BBX 23 20 4 -2
BITMAP
3FFFF0
7FFFF8
BFFFF6
C0000E
E0001E
E0001E
E0001E
E0001E
E0001E
E0001E
E0001E
E0001E
E0001E
E0001E
E0001E
E0001E
E0000E
DFFFF4
3FFFF8
3FFFF0
ENDCHAR
STARTCHAR 112
ENCODING 112
SWIDTH 2160 0
DWIDTH 30 0
BBX 23 35 4 0
BITMAP
3FFFF0
3FFFF8
DFFFF4
E0000E
E0001E
E0001E
E0001E
E0001E
E0001E
E0001E
E0001E
E0001E
E0001E
E0001E
E0001E
E0001E
C0000E
BFFFF6
7FFFF8
BFFFF0
C00000
E00000
E00000
E00000
E00000
E00000
E00000
E00000
E00000
E00000
E00000
E00000
E00000
E00000
C00000
ENDCHAR
STARTCHAR 113
ENCODING 113
SWIDTH 2160 0
DWIDTH 30 0
BBX 23 35 4 0
BITMAP
3FFFF0
3FFFF8
DFFFF4
E0000E
E0001E
E0001E
E0001E
E0001E
E0001E
E0001E
E0001E
E0001E
E0001E
E0001E
E0001E
E0001E
C0000E
BFFFF6
7FFFF8
3FFFF6
00000E
00001E
00001E
00001E
00001E
00001E
00001E
00001E
00001E
00001E
00001E
00001E
00001E
00000E
000004
ENDCHAR
STARTCHAR 114
ENCODING 114
SWIDTH 2160 0
DWIDTH 30 0
BBX 21 18 4 0
BITMAP
3FFFF0
7FFFF8
BFFFF0
C00000
E00000
E00000
E00000
E00000
E00000
E00000
E00000
E00000
E00000
E00000
E00000
E00000
E00000
C00000
ENDCHAR
STARTCHAR 115
ENCODING 115
SWIDTH 2160 0
DWIDTH 30 0
BBX 23 35 4 -2
BITMAP
C00000
E00000
E00000
E00000
E00000
E00000
E00000
E00000
E00000
E00000
E00000
E00000
E00000
E00000
C00000
BFFFF0
7FFFF8
3FFFF6
00000E
00001E
00001E
00001E
00001E
00001E
00001E
00001E
00001E
00001E
00001E
00001E
00001E
00000E
1FFFF4
3FFFF8
3FFFF0
ENDCHAR
STARTCHAR 116
ENCODING 116
SWIDTH 2160 0
DWIDTH 30 0
BBX 21 35 4 -2
BITMAP
C00000
E00000
E00000
E00000
E00000
E00000
E00000
E00000
E00000
E00000
E00000
E00000
E00000
E00000
C00000
BFFFF0
7FFFF8
BFFFF0
C00000
E00000
E00000
E00000
E00000
E00000
E00000
E00000
E00000
E00000
E00000
E00000
E00000
E00000
DFFFF0
3FFFF8
3FFFF0
ENDCHAR
STARTCHAR 117
ENCODING 117
SWIDTH 2160 0
DWIDTH 30 0
BBX 23 18 4 -2
BITMAP
800006
C0000E
E0001E
E0001E
E0001E
E0001E
E0001E
E0001E
E0001E
E0001E
E0001E
E0001E
E0001E
E0001E
E0000E
DFFFF4
3FFFF8
3FFFF0
ENDCHAR
STARTCHAR 118
ENCODING 118
SWIDTH 2160 0
DWIDTH 30 0
BBX 23 35 4 -2
BITMAP
C00004
E0000E
E0001E
E0001E
E0001E
E0001E
E0001E
E0001E
E0001E
E0001E
E0001E
E0001E
E0001E
E0001E
C0000E
800006
000000
800006
C0000E
E0001E
E0001E
E0001E
E0001E
E0001E
E0001E
E0001E
E0001E
E0001E
E0001E
E0001E
E0001E
E0000E
DFFFF4
3FFFF8
3FFFF0
ENDCHAR
STARTCHAR 119
ENCODING 119
SWIDTH 2160 0
DWIDTH 30 0
BBX 23 35 4 -2
BITMAP
C00004
E0000E
E0001E
E0001E
E0001E
E0001E
E0001E
E0001E
E0001E
E0001E
E0001E
E0001E
E0001E
E0001E
C0000E
BFFFF6
7FFFF8
BFFFF6
C0000E
E0001E
E0001E
E0001E
E0001E
E0001E
E0001E
E0001E
E0001E
E0001E
E0001E
E0001E
E0001E
E0000E
DFFFF4
3FFFF8
3FFFF0
ENDCHAR
STARTCHAR 120
ENCODING 120
SWIDTH 2160 0
DWIDTH 30 0
BBX 23 33 4 0
BITMAP
C00004
E0000E
E0001E
E0001E
E0001E
E0001E
E0001E
E0001E
E0001E
E0001E
E0001E
E0001E
E0001E
E0001E
C0000E
BFFFF6
7FFFF8
BFFFF6
C0000E
E0001E
E0001E
E0001E
E0001E
E0001E
E0001E
E0001E
E0001E
E0001E
E0001E
E0001E
E0001E
E0000E
C00004
ENDCHAR
STARTCHAR 121
ENCODING 121
SWIDTH 2160 0
DWIDTH 30 0
BBX 23 35 4 -2
BITMAP
C00004
E0000E
E0001E
E0001E
E0001E
E0001E
E0001E
E0001E
E0001E
E0001E
E0001E
E0001E
E0001E
E0001E
C0000E
BFFFF6
7FFFF8
3FFFF6
00000E
00001E
00001E
00001E
00001E
00001E
00001E
00001E
00001E
00001E
00001E
00001E
00001E
00000E
1FFFF4
3FFFF8
3FFFF0
ENDCHAR
STARTCHAR 122
ENCODING 122
SWIDTH 2160 0
DWIDTH 30 0
BBX 23 37 4 -2
BITMAP
3FFFF0
3FFFF8
1FFFF4
00000E
00001E
00001E
00001E
00001E
00001E
00001E
00001E
00001E
00001E
00001E
00001E
00001E
00000E
000006
000000
800000
C00000
E00000
E00000
E00000
E00000
E00000
E00000
E00000
E00000
E00000
E00000
E00000
E00000
E00000
DFFFF0
3FFFF8
3FFFF0
ENDCHAR
STARTCHAR 123
ENCODING 123
SWIDTH 648 0
DWIDTH 9 0
BBX 8 20 0 -2
BITMAP
07
0F
1C
18
18
18
18
18
18
18
30
E0
E0
30
18
18
18
18
18
18
ENDCHAR
STARTCHAR 124
ENCODING 124
SWIDTH 504 0
DWIDTH 7 0
BBX 2 20 2 -2
BITMAP
C0
C0
C0
C0
C0
C0
C0
C0
C0
C0
C0
C0
C0
C0
C0
C0
C0
C0
C0
C0
ENDCHAR
STARTCHAR 125
ENCODING 125
SWIDTH 648 0
DWIDTH 9 0
BBX 8 20 1 -2
BITMAP
E0
F0
38
18
18
18
18
18
18
18
0C
07
07
0C
18
18
18
18
18
18
ENDCHAR
STARTCHAR 126
ENCODING 126
SWIDTH 1152 0
DWIDTH 16 0
BBX 14 4 1 14
BITMAP
7C04
FF0C
C3FC
80F8
ENDCHAR
STARTCHAR 127
ENCODING 127
SWIDTH 576 0
DWIDTH 8 0
BBX 6 20 1 -1
BITMAP
FC
84
84
84
84
84
84
84
84
84
84
84
84
84
84
84
84
84
84
FC
ENDCHAR
STARTCHAR 128
ENCODING 128
SWIDTH 0 0
DWIDTH 0 0
BBX 0 0 0 0
BITMAP
ENDCHAR
STARTCHAR 129
ENCODING 129
SWIDTH 0 0
DWIDTH 0 0
BBX 0 0 0 0
BITMAP
ENDCHAR
STARTCHAR 130
ENCODING 130
SWIDTH 0 0
DWIDTH 0 0
BBX 0 0 0 0
BITMAP
ENDCHAR
STARTCHAR 131
ENCODING 131
SWIDTH 0 0
DWIDTH 0 0
BBX 0 0 0 0
BITMAP
ENDCHAR
STARTCHAR 132
ENCODING 132
SWIDTH 0 0
DWIDTH 0 0
BBX 0 0 0 0
BITMAP
ENDCHAR
STARTCHAR 133
ENCODING 133
SWIDTH 0 0
DWIDTH 0 0
BBX 0 0 0 0
BITMAP
ENDCHAR
STARTCHAR 134
ENCODING 134
SWIDTH 0 0
DWIDTH 0 0
BBX 0 0 0 0
BITMAP
ENDCHAR
STARTCHAR 135
ENCODING 135
SWIDTH 0 0
DWIDTH 0 0
BBX 0 0 0 0
BITMAP
ENDCHAR
STARTCHAR 136
ENCODING 136
SWIDTH 0 0
DWIDTH 0 0
BBX 0 0 0 0
BITMAP
ENDCHAR
STARTCHAR 137
ENCODING 137
SWIDTH 0 0
DWIDTH 0 0
BBX 0 0 0 0
BITMAP
ENDCHAR
STARTCHAR 138
ENCODING 138
SWIDTH 0 0
DWIDTH 0 0
BBX 0 0 0 0
BITMAP
ENDCHAR
STARTCHAR 139
ENCODING 139
SWIDTH 0 0
DWIDTH 0 0
BBX 0 0 0 0
BITMAP
ENDCHAR
STARTCHAR 140
ENCODING 140
SWIDTH 0 0
DWIDTH 0 0
BBX 0 0 0 0
BITMAP
ENDCHAR
STARTCHAR 141
ENCODING 141
SWIDTH 0 0
DWIDTH 0 0
BBX 0 0 0 0
BITMAP
ENDCHAR
STARTCHAR 142
ENCODING 142
SWIDTH 0 0
DWIDTH 0 0
BBX 0 0 0 0
BITMAP
ENDCHAR
STARTCHAR 143
ENCODING 143
SWIDTH 0 0
DWIDTH 0 0
BBX 0 0 0 0
BITMAP
ENDCHAR
STARTCHAR 144
ENCODING 144
SWIDTH 0 0
DWIDTH 0 0
BBX 0 0 0 0
BITMAP
ENDCHAR
STARTCHAR 145
ENCODING 145
SWIDTH 0 0
DWIDTH 0 0
BBX 0 0 0 0
BITMAP
ENDCHAR
STARTCHAR 146
ENCODING 146
SWIDTH 0 0
DWIDTH 0 0
BBX 0 0 0 0
BITMAP
ENDCHAR
STARTCHAR 147
ENCODING 147
SWIDTH 0 0
DWIDTH 0 0
BBX 0 0 0 0
BITMAP
ENDCHAR
STARTCHAR 148
ENCODING 148
SWIDTH 0 0
DWIDTH 0 0
BBX 0 0 0 0
BITMAP
ENDCHAR
STARTCHAR 149
ENCODING 149
SWIDTH 0 0
DWIDTH 0 0
BBX 0 0 0 0
BITMAP
ENDCHAR
STARTCHAR 150
ENCODING 150
SWIDTH 0 0
DWIDTH 0 0
BBX 0 0 0 0
BITMAP
ENDCHAR
STARTCHAR 151
ENCODING 151
SWIDTH 0 0
DWIDTH 0 0
BBX 0 0 0 0
BITMAP
ENDCHAR
STARTCHAR 152
ENCODING 152
SWIDTH 0 0
DWIDTH 0 0
BBX 0 0 0 0
BITMAP
ENDCHAR
STARTCHAR 153
ENCODING 153
SWIDTH 0 0
DWIDTH 0 0
BBX 0 0 0 0
BITMAP
ENDCHAR
STARTCHAR 154
ENCODING 154
SWIDTH 0 0
DWIDTH 0 0
BBX 0 0 0 0
BITMAP
ENDCHAR
STARTCHAR 155
ENCODING 155
SWIDTH 0 0
DWIDTH 0 0
BBX 0 0 0 0
BITMAP
ENDCHAR
STARTCHAR 156
ENCODING 156
SWIDTH 0 0
DWIDTH 0 0
BBX 0 0 0 0
BITMAP
ENDCHAR
STARTCHAR 157
ENCODING 157
SWIDTH 0 0
DWIDTH 0 0
BBX 0 0 0 0
BITMAP
ENDCHAR
STARTCHAR 158
ENCODING 158
SWIDTH 0 0
DWIDTH 0 0
BBX 0 0 0 0
BITMAP
ENDCHAR
STARTCHAR 159
ENCODING 159
SWIDTH 0 0
DWIDTH 0 0
BBX 0 0 0 0
BITMAP
ENDCHAR
STARTCHAR 160
ENCODING 160
SWIDTH 504 0
DWIDTH 7 0
BBX 0 0 0 0
BITMAP
ENDCHAR
STARTCHAR 161
ENCODING 161
SWIDTH 576 0
DWIDTH 8 0
BBX 2 15 3 -2
BITMAP
C0
C0
C0
00
00
C0
C0
C0
C0
C0
C0
C0
C0
C0
C0
ENDCHAR
STARTCHAR 162
ENCODING 162
SWIDTH 1080 0
DWIDTH 15 0
BBX 11 18 2 -2
BITMAP
0080
0080
0100
1F00
3FC0
71C0
6260
C260
C200
C200
C400
C400
C460
6460
78C0
3FC0
0F00
0800
ENDCHAR
STARTCHAR 163
ENCODING 163
SWIDTH 1080 0
DWIDTH 15 0
BBX 13 19 1 -1
BITMAP
0FC0
1FE0
3870
7018
6018
6000
6000
6000
6000
FF80
FF80
3000
3000
3000
2000
6000
FE08
FFF8
81F8
ENDCHAR
STARTCHAR 164
ENCODING 164
SWIDTH 1080 0
DWIDTH 15 0
BBX 13 13 1 2
BITMAP
4010
EFB8
7FF0
38E0
7070
6030
6030
6030
7070
38E0
7FF0
EFB8
4010
ENDCHAR
STARTCHAR 165
ENCODING 165
SWIDTH 1080 0
DWIDTH 15 0
BBX 14 19 0 -1
BITMAP
C00C
6018
6018
3030
3030
1860
08C0
0CC0
0580
7FF8
7FF8
0300
0300
7FF8
7FF8
0300
0300
0300
0300
ENDCHAR
STARTCHAR 166
ENCODING 166
SWIDTH 504 0
DWIDTH 7 0
BBX 2 20 2 -2
BITMAP
C0
C0
C0
C0
C0
C0
C0
C0
C0
C0
00
00
00
00
C0
C0
C0
C0
C0
C0
ENDCHAR
STARTCHAR 167
ENCODING 167
SWIDTH 1080 0
DWIDTH 15 0
BBX 13 20 1 -2
BITMAP
1F80
3FC0
7060
6030
6030
7000
3C00
3F00
6780
C1E0
C070
C038
E018
7818
3E10
0FF0
03C0
00E0
0070
6030
ENDCHAR
STARTCHAR 168
ENCODING 168
SWIDTH 648 0
DWIDTH 9 0
BBX 7 3 1 16
BITMAP
C6
C6
C6
ENDCHAR
STARTCHAR 169
ENCODING 169
SWIDTH 1440 0
DWIDTH 20 0
BBX 20 19 0 -1
BITMAP
01F800
07FE00
1E0780
3801C0
70F8E0
638C60
E30670
C60030
C60030
C60030
C60030
C60630
E30470
638C60
70F8E0
3801C0
1E0780
07FE00
01F800
ENDCHAR
STARTCHAR 170
ENCODING 170
SWIDTH 720 0
DWIDTH 10 0
BBX 8 13 1 5
BITMAP
3E
FF
C3
3F
7F
C3
C7
FF
7B
00
00
FF
FF
ENDCHAR
STARTCHAR 171
ENCODING 171
SWIDTH 1080 0
DWIDTH 15 0
BBX 11 12 2 0
BITMAP
0C60
18C0
3180
3180
6300
C600
C600
6300
3180
3180
18C0
0C60
ENDCHAR
STARTCHAR 172
ENCODING 172
SWIDTH 1152 0
DWIDTH 16 0
BBX 12 8 2 5
BITMAP
FFF0
FFF0
0030
0030
0030
0030
0030
0030
ENDCHAR
STARTCHAR 173
ENCODING 173
SWIDTH 648 0
DWIDTH 9 0
BBX 7 2 1 5
BITMAP
FE
FE
ENDCHAR
STARTCHAR 174
ENCODING 174
SWIDTH 1440 0
DWIDTH 20 0
BBX 20 19 0 -1
BITMAP
01F800
07FE00
1E0780
3801C0
7000E0
63F860
E30E70
C30630
C30630
C30E30
C3F830
C31830
E30C70
630C60
7306E0
3801C0
1E0780
07FE00
01F800
ENDCHAR
STARTCHAR 175
ENCODING 175
SWIDTH 1008 0
DWIDTH 14 0
BBX 14 1 0 20
BITMAP
FFFC
ENDCHAR
STARTCHAR 176
ENCODING 176
SWIDTH 2160 0
DWIDTH 30 0
BBX 23 20 4 15
BITMAP
3FFFF0
3FFFF8
DFFFF4
E0000E
E0001E
E0001E
E0001E
E0001E
E0001E
E0001E
E0001E
E0001E
E0001E
E0001E
E0001E
E0001E
C0000E
BFFFF6
7FFFF8
3FFFF0
ENDCHAR
STARTCHAR 177
ENCODING 177
SWIDTH 1152 0
DWIDTH 16 0
BBX 12 16 2 -1
BITMAP
0600
0600
0600
0600
0600
FFF0
FFF0
0600
0600
0600
0600
0600
0000
0000
FFF0
FFF0
ENDCHAR
STARTCHAR 178
ENCODING 178
SWIDTH 648 0
DWIDTH 9 0
BBX 8 10 0 8
BITMAP
3E
7F
C3
03
02
0C
18
70
7F
FF
ENDCHAR
STARTCHAR 179
ENCODING 179
SWIDTH 648 0
DWIDTH 9 0
BBX 8 10 0 8
BITMAP
3E
7F
C3
03
1E
1E
03
C3
7F
3C
ENDCHAR
STARTCHAR 180
ENCODING 180
SWIDTH 648 0
DWIDTH 9 0
BBX 5 4 3 15
BITMAP
38
70
60
C0
ENDCHAR
STARTCHAR 181
ENCODING 181
SWIDTH 1080 0
DWIDTH 15 0
BBX 13 15 2 -2
BITMAP
C060
C060
C060
C060
C060
C060
C060
C060
C060
C060
C0E0
E1E0
FFF8
FE38
C000
ENDCHAR
STARTCHAR 182
ENCODING 182
SWIDTH 1080 0
DWIDTH 15 0
BBX 15 20 0 -2
BITMAP
1FFE
3FFE
7F18
FF18
FF18
FF18
FF18
FF18
7F18
3F18
1F18
0318
0318
0318
0318
0318
0318
0318
0318
0318
ENDCHAR
STARTCHAR 183
ENCODING 183
SWIDTH 576 0
DWIDTH 8 0
BBX 2 3 3 7
BITMAP
C0
C0
C0
ENDCHAR
STARTCHAR 184
ENCODING 184
SWIDTH 648 0
DWIDTH 9 0
BBX 2 1 3 -2
BITMAP
C0
ENDCHAR
STARTCHAR 185
ENCODING 185
SWIDTH 648 0
DWIDTH 9 0
BBX 5 10 1 8
BITMAP
18
18
F8
F8
18
18
18
18
18
18
ENDCHAR
STARTCHAR 186
ENCODING 186
SWIDTH 720 0
DWIDTH 10 0
BBX 9 13 1 5
BITMAP
3E00
7F00
E380
C180
C180
C180
E380
7F00
3E00
0000
0000
FF80
FF80
ENDCHAR
STARTCHAR 187
ENCODING 187
SWIDTH 1080 0
DWIDTH 15 0
BBX 11 12 2 0
BITMAP
C600
6300
3180
3180
18C0
0C60
0C60
18C0
3180
3180
6300
C600
ENDCHAR
STARTCHAR 188
ENCODING 188
SWIDTH 1656 0
DWIDTH 23 0
BBX 20 19 1 -1
BITMAP
1800C0
180180
F80300
F80600
180600
180C00
181800
183000
183000
186060
00C0E0
00C160
018360
030660
060460
060FF0
0C0FF0
180060
300060
ENDCHAR
STARTCHAR 189
ENCODING 189
SWIDTH 1656 0
DWIDTH 23 0
BBX 20 19 1 -1
BITMAP
1800C0
180180
F80300
F80600
180600
180C00
181800
183000
183000
1863E0
00C7F0
00CC30
018030
030020
0600C0
060180
0C0700
1807F0
300FF0
ENDCHAR
STARTCHAR 190
ENCODING 190
SWIDTH 1656 0
DWIDTH 23 0
BBX 21 19 0 -1
BITMAP
3E0060
7F00C0
C30180
030300
1E0300
1E0600
030C00
C31800
7F1800
3C3030
006070
0060B0
00C1B0
018330
030230
0307F8
0607F8
0C0030
180030
ENDCHAR
STARTCHAR 191
ENCODING 191
SWIDTH 1080 0
DWIDTH 15 0
BBX 11 15 2 -2
BITMAP
0600
0600
0600
0000
0000
0600
0600
0600
0C00
1C00
3000
6000
C000
C060
C060
ENDCHAR
STARTCHAR 192
ENCODING 192
SWIDTH 1296 0
DWIDTH 18 0
BBX 18 25 0 -1
BITMAP
038000
01C000
00C000
006000
000000
000000
01C000
01E000
036000
037000
033000
063000
061800
0E1800
0C0C00
0C0C00
180C00
1FFE00
1FFE00
300300
300300
600380
600180
600180
C000C0
ENDCHAR
STARTCHAR 193
ENCODING 193
SWIDTH 1296 0
DWIDTH 18 0
BBX 18 25 0 -1
BITMAP
007000
00E000
00C000
018000
000000
000000
01C000
01E000
036000
037000
033000
063000
061800
0E1800
0C0C00
0C0C00
180C00
1FFE00
1FFE00
300300
300300
600380
600180
600180
C000C0
ENDCHAR
STARTCHAR 194
ENCODING 194
SWIDTH 1296 0
DWIDTH 18 0
BBX 18 25 0 -1
BITMAP
01E000
01E000
033000
073800
000000
000000
01C000
01E000
036000
037000
033000
063000
061800
0E1800
0C0C00
0C0C00
180C00
1FFE00
1FFE00
300300
300300
600380
600180
600180
C000C0
ENDCHAR
STARTCHAR 195
ENCODING 195
SWIDTH 1296 0
DWIDTH 18 0
BBX 18 24 0 -1
BITMAP
03CC00
07FC00
063800
000000
000000
01C000
01E000
036000
037000
033000
063000
061800
0E1800
0C0C00
0C0C00
180C00
1FFE00
1FFE00
300300
300300
600380
600180
600180
C000C0
ENDCHAR
STARTCHAR 196
ENCODING 196
SWIDTH 1296 0
DWIDTH 18 0
BBX 18 25 0 -1
BITMAP
031800
031800
031800
000000
000000
000000
01C000
01E000
036000
037000
033000
063000
061800
0E1800
0C0C00
0C0C00
180C00
1FFE00
1FFE00
300300
300300
600380
600180
600180
C000C0
ENDCHAR
STARTCHAR 197
ENCODING 197
SWIDTH 1296 0
DWIDTH 18 0
BBX 18 24 0 -1
BITMAP
00E000
011000
011000
011000
00E000
01C000
01E000
036000
037000
033000
063000
061800
0E1800
0C0C00
0C0C00
180C00
1FFE00
1FFE00
300300
300300
600380
600180
600180
C000C0
ENDCHAR
STARTCHAR 198
ENCODING 198
SWIDTH 1944 0
DWIDTH 27 0
BBX 25 19 0 -1
BITMAP
000FFF80
001FFF80
00360000
00360000
00660000
00460000
00C60000
01860000
0187FF00
0307FF00
06060000
07FE0000
0FFE0000
1C060000
18060000
30060000
30060000
6007FF80
E007FF80
ENDCHAR
STARTCHAR 199
ENCODING 199
SWIDTH 1440 0
DWIDTH 20 0
BBX 16 20 2 -2
BITMAP
07F0
0FF8
3C1E
3006
6003
6003
C000
C000
C000
C000
C000
C000
C000
6003
6003
7006
3C1E
1FFC
07F0
0180
ENDCHAR
STARTCHAR 200
ENCODING 200
SWIDTH 1296 0
DWIDTH 18 0
BBX 14 25 2 -1
BITMAP
0E00
0700
0300
0180
0000
0000
FFFC
FFFC
C000
C000
C000
C000
C000
C000
FFF8
FFF8
C000
C000
C000
C000
C000
C000
C000
FFFC
FFFC
ENDCHAR
STARTCHAR 201
ENCODING 201
SWIDTH 1296 0
DWIDTH 18 0
BBX 14 25 2 -1
BITMAP
01C0
0380
0300
0600
0000
0000
FFFC
FFFC
C000
C000
C000
C000
C000
C000
FFF8
FFF8
C000
C000
C000
C000
C000
C000
C000
FFFC
FFFC
ENDCHAR
STARTCHAR 202
ENCODING 202
SWIDTH 1296 0
DWIDTH 18 0
BBX 14 25 2 -1
BITMAP
0780
0780
0CC0
1CE0
0000
0000
FFFC
FFFC
C000
C000
C000
C000
C000
C000
FFF8
FFF8
C000
C000
C000
C000
C000
C000
C000
FFFC
FFFC
ENDCHAR
STARTCHAR 203
ENCODING 203
SWIDTH 1296 0
DWIDTH 18 0
BBX 14 25 2 -1
BITMAP
0C60
0C60
0C60
0000
0000
0000
FFFC
FFFC
C000
C000
C000
C000
C000
C000
FFF8
FFF8
C000
C000
C000
C000
C000
C000
C000
FFFC
FFFC
ENDCHAR
STARTCHAR 204
ENCODING 204
SWIDTH 576 0
DWIDTH 8 0
BBX 5 25 1 -1
BITMAP
E0
70
30
18
00
00
30
30
30
30
30
30
30
30
30
30
30
30
30
30
30
30
30
30
30
ENDCHAR
STARTCHAR 205
ENCODING 205
SWIDTH 576 0
DWIDTH 8 0
BBX 5 25 3 -1
BITMAP
38
70
60
C0
00
00
C0
C0
C0
C0
C0
C0
C0
C0
C0
C0
C0
C0
C0
C0
C0
C0
C0
C0
C0
ENDCHAR
STARTCHAR 206
ENCODING 206
SWIDTH 576 0
DWIDTH 8 0
BBX 8 25 0 -1
BITMAP
3C
3C
66
E7
00
00
18
18
18
18
18
18
18
18
18
18
18
18
18
18
18
18
18
18
18
ENDCHAR
STARTCHAR 207
ENCODING 207
SWIDTH 576 0
DWIDTH 8 0
BBX 6 24 1 -1
BITMAP
CC
CC
CC
00
00
30
30
30
30
30
30
30
30
30
30
30
30
30
30
30
30
30
30
30
ENDCHAR
STARTCHAR 208
ENCODING 208
SWIDTH 1440 0
DWIDTH 20 0
BBX 18 19 0 -1
BITMAP
3FF000
3FFC00
300F00
300300
300180
300180
3000C0
3000C0
FFC0C0
FFC0C0
3000C0
3000C0
3000C0
300180
300180
300300
300F00
3FFC00
3FF000
ENDCHAR
STARTCHAR 209
ENCODING 209
SWIDTH 1440 0
DWIDTH 20 0
BBX 16 24 2 -1
BITMAP
0798
0FF8
0C70
0000
0000
E003
E003
F003
D803
D803
CC03
C603
C703
C303
C183
C0C3
C0E3
C063
C033
C01B
C01B
C00F
C007
C007
ENDCHAR
STARTCHAR 210
ENCODING 210
SWIDTH 1512 0
DWIDTH 21 0
BBX 17 25 2 -1
BITMAP
038000
01C000
00C000
006000
000000
000000
03F000
0FF800
3C1E00
300600
600300
600300
C00180
C00180
C00180
C00180
C00180
C00180
C00180
600300
600300
300600
3C1E00
0FF800
03F000
ENDCHAR
STARTCHAR 211
ENCODING 211
SWIDTH 1512 0
DWIDTH 21 0
BBX 17 25 2 -1
BITMAP
007000
00E000
00C000
018000
000000
000000
03F000
0FF800
3C1E00
300600
600300
600300
C00180
C00180
C00180
C00180
C00180
C00180
C00180
600300
600300
300600
3C1E00
0FF800
03F000
ENDCHAR
STARTCHAR 212
ENCODING 212
SWIDTH 1512 0
DWIDTH 21 0
BBX 17 25 2 -1
BITMAP
01E000
01E000
033000
073800
000000
000000
03F000
0FF800
3C1E00
300600
600300
600300
C00180
C00180
C00180
C00180
C00180
C00180
C00180
600300
600300
300600
3C1E00
0FF800
03F000
ENDCHAR
STARTCHAR 213
ENCODING 213
SWIDTH 1512 0
DWIDTH 21 0
BBX 17 24 2 -1
BITMAP
079800
0FF800
0C7000
000000
000000
03F000
0FF800
3C1E00
300600
600300
600300
C00180
C00180
C00180
C00180
C00180
C00180
C00180
600300
600300
300600
3C1E00
0FF800
03F000
ENDCHAR
STARTCHAR 214
ENCODING 214
SWIDTH 1512 0
DWIDTH 21 0
BBX 17 25 2 -1
BITMAP
063000
063000
063000
000000
000000
000000
03F000
0FF800
3C1E00
300600
600300
600300
C00180
C00180
C00180
C00180
C00180
C00180
C00180
600300
600300
300600
3C1E00
0FF800
03F000
ENDCHAR
STARTCHAR 215
ENCODING 215
SWIDTH 1152 0
DWIDTH 16 0
BBX 11 11 2 3
BITMAP
4040
E0E0
71C0
3B80
1F00
0E00
1F00
3B80
71C0
E0E0
4040
ENDCHAR
STARTCHAR 216
ENCODING 216
SWIDTH 1512 0
DWIDTH 21 0
BBX 17 19 2 -1
BITMAP
03E180
0FF980
3C1F00
300600
600F00
601B00
C03180
C06180
C0C180
C1C180
C18180
C30180
C60180
6C0300
780300
300600
7C1E00
CFF800
C3F000
ENDCHAR
STARTCHAR 217
ENCODING 217
SWIDTH 1440 0
DWIDTH 20 0
BBX 16 25 2 -1
BITMAP
0700
0380
0180
00C0
0000
0000
C003
C003
C003
C003
C003
C003
C003
C003
C003
C003
C003
C003
C003
C003
E007
6006
781E
3FFC
0FF0
ENDCHAR
STARTCHAR 218
ENCODING 218
SWIDTH 1440 0
DWIDTH 20 0
BBX 16 25 2 -1
BITMAP
0070
00E0
00C0
0180
0000
0000
C003
C003
C003
C003
C003
C003
C003
C003
C003
C003
C003
C003
C003
C003
E007
6006
781E
3FFC
0FF0
ENDCHAR
STARTCHAR 219
ENCODING 219
SWIDTH 1440 0
DWIDTH 20 0
BBX 16 25 2 -1
BITMAP
03C0
03C0
0660
0E70
0000
0000
C003
C003
C003
C003
C003
C003
C003
C003
C003
C003
C003
C003
C003
C003
E007
6006
781E
3FFC
0FF0
ENDCHAR
STARTCHAR 220
ENCODING 220
SWIDTH 1440 0
DWIDTH 20 0
BBX 16 25 2 -1
BITMAP
0630
0630
0630
0000
0000
0000
C003
C003
C003
C003
C003
C003
C003
C003
C003
C003
C003
C003
C003
C003
E007
6006
781E
3FFC
0FF0
ENDCHAR
STARTCHAR 221
ENCODING 221
SWIDTH 1296 0
DWIDTH 18 0
BBX 18 25 0 -1
BITMAP
003800
007000
006000
00C000
000000
000000
C000C0
600180
700380
300300
180600
0C0C00
061800
061800
033000
01E000
00C000
00C000
00C000
00C000
00C000
00C000
00C000
00C000
00C000
ENDCHAR
STARTCHAR 222
ENCODING 222
SWIDTH 1296 0
DWIDTH 18 0
BBX 14 19 2 -1
BITMAP
C000
C000
C000
C000
FFE0
FFF0
C038
C01C
C00C
C00C
C00C
C01C
C038
FFF0
FFC0
C000
C000
C000
C000
ENDCHAR
STARTCHAR 223
ENCODING 223
SWIDTH 1224 0
DWIDTH 17 0
BBX 14 19 2 -1
BITMAP
1F80
3FC0
70E0
E060
C060
C0C0
C0C0
C180
C180
C180
C1E0
C0F0
C038
C01C
C00C
CC0C
CE1C
C7F8
C3E0
ENDCHAR
STARTCHAR 224
ENCODING 224
SWIDTH 1080 0
DWIDTH 15 0
BBX 12 20 1 -1
BITMAP
1C00
0E00
0600
0300
0000
0000
1F80
7FE0
E070
C030
0030
0FF0
3FF0
7030
C030
C030
C030
E0F0
7FF0
3F30
ENDCHAR
STARTCHAR 225
ENCODING 225
SWIDTH 1080 0
DWIDTH 15 0
BBX 12 20 1 -1
BITMAP
01C0
0380
0300
0600
0000
0000
1F80
7FE0
E070
C030
0030
0FF0
3FF0
7030
C030
C030
C030
E0F0
7FF0
3F30
ENDCHAR
STARTCHAR 226
ENCODING 226
SWIDTH 1080 0
DWIDTH 15 0
BBX 12 20 1 -1
BITMAP
0780
0780
0CC0
1CE0
0000
0000
1F80
7FE0
E070
C030
0030
0FF0
3FF0
7030
C030
C030
C030
E0F0
7FF0
3F30
ENDCHAR
STARTCHAR 227
ENCODING 227
SWIDTH 1080 0
DWIDTH 15 0
BBX 12 19 1 -1
BITMAP
1E60
3FE0
31C0
0000
0000
1F80
7FE0
E070
C030
0030
0FF0
3FF0
7030
C030
C030
C030
E0F0
7FF0
3F30
ENDCHAR
STARTCHAR 228
ENCODING 228
SWIDTH 1080 0
DWIDTH 15 0
BBX 12 20 1 -1
BITMAP
18C0
18C0
18C0
0000
0000
0000
1F80
7FE0
E070
C030
0030
0FF0
3FF0
7030
C030
C030
C030
E0F0
7FF0
3F30
ENDCHAR
STARTCHAR 229
ENCODING 229
SWIDTH 1080 0
DWIDTH 15 0
BBX 12 21 1 -1
BITMAP
0700
0880
0880
0880
0700
0000
0000
1F80
7FE0
E070
C030
0030
0FF0
3FF0
7030
C030
C030
C030
E0F0
7FF0
3F30
ENDCHAR
STARTCHAR 230
ENCODING 230
SWIDTH 1728 0
DWIDTH 24 0
BBX 22 14 1 -1
BITMAP
1F8FC0
7FDFF0
E0F838
C07018
00600C
0FE00C
3FFFFC
707FFC
C06000
C0600C
C0F00C
E1F838
7F9FF0
3F07E0
ENDCHAR
STARTCHAR 231
ENCODING 231
SWIDTH 1008 0
DWIDTH 14 0
BBX 12 15 1 -2
BITMAP
0F80
3FC0
7060
6030
C030
C000
C000
C000
C000
C000
6030
7070
3FE0
1F80
0600
ENDCHAR
STARTCHAR 232
ENCODING 232
SWIDTH 1080 0
DWIDTH 15 0
BBX 13 20 1 -1
BITMAP
1C00
0E00
0600
0300
0000
0000
0F80
3FE0
7070
6030
C018
C018
FFF8
FFF8
C000
C018
6018
7070
3FE0
0FC0
ENDCHAR
STARTCHAR 233
ENCODING 233
SWIDTH 1080 0
DWIDTH 15 0
BBX 13 20 1 -1
BITMAP
01C0
0380
0300
0600
0000
0000
0F80
3FE0
7070
6030
C018
C018
FFF8
FFF8
C000
C018
6018
7070
3FE0
0FC0
ENDCHAR
STARTCHAR 234
ENCODING 234
SWIDTH 1080 0
DWIDTH 15 0
BBX 13 20 1 -1
BITMAP
0780
0780
0CC0
1CE0
0000
0000
0F80
3FE0
7070
6030
C018
C018
FFF8
FFF8
C000
C018
6018
7070
3FE0
0FC0
ENDCHAR
STARTCHAR 235
ENCODING 235
SWIDTH 1080 0
DWIDTH 15 0
BBX 13 20 1 -1
BITMAP
18C0
18C0
18C0
0000
0000
0000
0F80
3FE0
7070
6030
C018
C018
FFF8
FFF8
C000
C018
6018
7070
3FE0
0FC0
ENDCHAR
STARTCHAR 236
ENCODING 236
SWIDTH 432 0
DWIDTH 6 0
BBX 4 20 0 -1
BITMAP
C0
E0
60
30
00
00
30
30
30
30
30
30
30
30
30
30
30
30
30
30
ENDCHAR
STARTCHAR 237
ENCODING 237
SWIDTH 432 0
DWIDTH 6 0
BBX 4 20 2 -1
BITMAP
30
70
60
C0
00
00
C0
C0
C0
C0
C0
C0
C0
C0
C0
C0
C0
C0
C0
C0
ENDCHAR
STARTCHAR 238
ENCODING 238
SWIDTH 432 0
DWIDTH 6 0
BBX 6 20 0 -1
BITMAP
78
78
CC
CC
00
00
30
30
30
30
30
30
30
30
30
30
30
30
30
30
ENDCHAR
STARTCHAR 239
ENCODING 239
SWIDTH 432 0
DWIDTH 6 0
BBX 6 20 0 -1
BITMAP
84
84
84
00
00
00
30
30
30
30
30
30
30
30
30
30
30
30
30
30
ENDCHAR
STARTCHAR 240
ENCODING 240
SWIDTH 1080 0
DWIDTH 15 0
BBX 13 19 1 -1
BITMAP
1E60
07C0
0F80
19C0
00E0
0FE0
3FF0
7070
6038
C018
C018
C018
C018
C018
C018
6030
7070
3FE0
0F80
ENDCHAR
STARTCHAR 241
ENCODING 241
SWIDTH 1080 0
DWIDTH 15 0
BBX 11 19 2 -1
BITMAP
3CC0
7FC0
6380
0000
0000
CF80
DFC0
F0E0
E060
C060
C060
C060
C060
C060
C060
C060
C060
C060
C060
ENDCHAR
STARTCHAR 242
ENCODING 242
SWIDTH 1080 0
DWIDTH 15 0
BBX 13 20 1 -1
BITMAP
1C00
0E00
0600
0300
0000
0000
0F80
3FE0
7070
6030
C018
C018
C018
C018
C018
C018
6030
7070
3FE0
0F80
ENDCHAR
STARTCHAR 243
ENCODING 243
SWIDTH 1080 0
DWIDTH 15 0
BBX 13 20 1 -1
BITMAP
01C0
0380
0300
0600
0000
0000
0F80
3FE0
7070
6030
C018
C018
C018
C018
C018
C018
6030
7070
3FE0
0F80
ENDCHAR
STARTCHAR 244
ENCODING 244
SWIDTH 1080 0
DWIDTH 15 0
BBX 13 20 1 -1
BITMAP
0780
0780
0CC0
1CE0
0000
0000
0F80
3FE0
7070
6030
C018
C018
C018
C018
C018
C018
6030
7070
3FE0
0F80
ENDCHAR
STARTCHAR 245
ENCODING 245
SWIDTH 1080 0
DWIDTH 15 0
BBX 13 19 1 -1
BITMAP
1E60
3FE0
31C0
0000
0000
0F80
3FE0
7070
6030
C018
C018
C018
C018
C018
C018
6030
7070
3FE0
0F80
ENDCHAR
STARTCHAR 246
ENCODING 246
SWIDTH 1080 0
DWIDTH 15 0
BBX 13 20 1 -1
BITMAP
18C0
18C0
18C0
0000
0000
0000
0F80
3FE0
7070
6030
C018
C018
C018
C018
C018
C018
6030
7070
3FE0
0F80
ENDCHAR
STARTCHAR 247
ENCODING 247
SWIDTH 1152 0
DWIDTH 16 0
BBX 12 12 2 3
BITMAP
0600
0600
0600
0000
0000
FFF0
FFF0
0000
0000
0600
0600
0600
ENDCHAR
STARTCHAR 248
ENCODING 248
SWIDTH 1080 0
DWIDTH 15 0
BBX 13 16 1 -2
BITMAP
0010
0F98
3FF0
7070
6070
C0D8
C198
C318
C618
CC18
D818
7030
7070
7FE0
CF80
4000
ENDCHAR
STARTCHAR 249
ENCODING 249
SWIDTH 1080 0
DWIDTH 15 0
BBX 11 20 2 -1
BITMAP
3800
1C00
0C00
0600
0000
0000
C060
C060
C060
C060
C060
C060
C060
C060
C060
C060
C0E0
E1E0
7F60
3E60
ENDCHAR
STARTCHAR 250
ENCODING 250
SWIDTH 1080 0
DWIDTH 15 0
BBX 11 20 2 -1
BITMAP
0380
0700
0600
0C00
0000
0000
C060
C060
C060
C060
C060
C060
C060
C060
C060
C060
C0E0
E1E0
7F60
3E60
ENDCHAR
STARTCHAR 251
ENCODING 251
SWIDTH 1080 0
DWIDTH 15 0
BBX 11 20 2 -1
BITMAP
0F00
0F00
1980
39C0
0000
0000
C060
C060
C060
C060
C060
C060
C060
C060
C060
C060
C0E0
E1E0
7F60
3E60
ENDCHAR
STARTCHAR 252
ENCODING 252
SWIDTH 1080 0
DWIDTH 15 0
BBX 11 20 2 -1
BITMAP
3180
3180
3180
0000
0000
0000
C060
C060
C060
C060
C060
C060
C060
C060
C060
C060
C0E0
E1E0
7F60
3E60
ENDCHAR
STARTCHAR 253
ENCODING 253
SWIDTH 1008 0
DWIDTH 14 0
BBX 12 21 1 -2
BITMAP
01C0
0380
0300
0600
0000
0000
C030
6060
6060
6060
30C0
30C0
30C0
1980
1980
1980
0F00
0F00
0F00
0600
0600
ENDCHAR
STARTCHAR 254
ENCODING 254
SWIDTH 1080 0
DWIDTH 15 0
BBX 12 20 2 -2
BITMAP
C000
C000
C000
C000
C000
CF80
FFC0
F0E0
E060
C030
C030
C030
C030
C030
C030
C060
F0E0
FFC0
DF00
C000
ENDCHAR
STARTCHAR 255
ENCODING 255
SWIDTH 1008 0
DWIDTH 14 0
BBX 12 21 1 -2
BITMAP
18C0
18C0
18C0
0000
0000
0000
C030
6060
6060
6060
30C0
30C0
30C0
1980
1980
1980
0F00
0F00
0F00
0600
0600
ENDCHAR
ENDFONT
